<?xml version="1.0" encoding="UTF-8" standalone="no"?>
<svg width="29px" height="30px" viewBox="0 0 29 30" version="1.1" xmlns="http://www.w3.org/2000/svg" xmlns:xlink="http://www.w3.org/1999/xlink" xmlns:sketch="http://www.bohemiancoding.com/sketch/ns">
    <!-- Generator: Sketch 3.0.4 (8054) - http://www.bohemiancoding.com/sketch -->
    <title>Slice 2</title>
    <desc>Created with Sketch.</desc>
    <defs></defs>
    <g id="Page-1" stroke="none" stroke-width="1" fill="none" fill-rule="evenodd" sketch:type="MSPage">
        <g id="collapse" sketch:type="MSLayerGroup" transform="translate(0.000000, 0.500000)" fill="#000000">
            <g id="c116_arrows" sketch:type="MSShapeGroup">
                <path d="M21.934,19.814 L25.168,19.814 C26.046,19.811 26.757,19.144 26.757,18.322 C26.757,17.498 26.046,16.83 25.168,16.83 L18.404,16.83 C17.525,16.83 16.814,17.498 16.813,18.322 C16.814,18.342 16.82,18.363 16.82,18.384 C16.82,18.41 16.813,18.441 16.813,18.47 L16.813,25.143 C16.813,26.007 17.479,26.709 18.303,26.709 C19.124,26.706 19.794,26.007 19.794,25.143 L19.794,21.89 L25.813,27.91 C26.395,28.493 27.337,28.493 27.92,27.91 C28.5,27.328 28.5,26.385 27.92,25.803 L21.934,19.814 L21.934,19.814 Z" id="Shape"></path>
                <path d="M11.5440012,18.322381 C11.5420012,17.4984497 10.8320012,16.8305054 9.95200122,16.8305054 L3.19000122,16.8305054 C2.31300122,16.8305054 1.59700122,17.4984497 1.59700122,18.322381 C1.59700122,19.1443125 2.31300122,19.811257 3.19000122,19.8142567 L6.42400122,19.8142567 L0.434001221,25.7997579 C-0.142998779,26.3817094 -0.142998779,27.3246308 0.434001221,27.9065823 C1.01800122,28.4895337 1.96000122,28.4895337 2.54100122,27.9065823 L8.56100122,21.887084 L8.56100122,25.138813 C8.56100122,26.002741 9.23100122,26.7016827 10.0510012,26.7036825 C10.8770012,26.7036825 11.5420012,26.002741 11.5420012,25.138813 L11.5420012,18.466369 C11.5420012,18.4373715 11.5340012,18.406374 11.5340012,18.3803762 C11.5360012,18.3633776 11.5420012,18.3423794 11.5440012,18.322381 L11.5440012,18.322381 Z" id="Shape"></path>
                <path d="M16.814,10.022 C16.815,10.846 17.526,11.513 18.405,11.513 L25.169,11.513 C26.047,11.513 26.758,10.846 26.758,10.022 C26.758,9.2 26.047,8.535 25.169,8.533 L21.935,8.533 L27.923,2.546 C28.503,1.962 28.503,1.019 27.923,0.438 C27.34,-0.144 26.398,-0.144 25.816,0.438 L19.797,6.458 L19.797,3.205 C19.797,2.338 19.127,1.638 18.306,1.638 C17.482,1.638 16.816,2.338 16.816,3.205 L16.816,9.876 C16.816,9.906 16.823,9.934 16.823,9.963 C16.821,9.983 16.815,9.999 16.814,10.022 L16.814,10.022 Z" id="Shape"></path>
                <path d="M10.051,1.637 C9.231,1.637 8.561,2.337 8.561,3.204 L8.561,6.455 L2.541,0.435 C1.96,-0.147 1.018,-0.147 0.434,0.435 C-0.143,1.016 -0.143,1.959 0.434,2.543 L6.424,8.53 L3.188,8.53 C2.312,8.535 1.596,9.2 1.596,10.022 C1.596,10.846 2.312,11.513 3.189,11.513 L9.95,11.513 C10.83,11.513 11.54,10.846 11.542,10.022 C11.54,9.999 11.534,9.983 11.534,9.961 C11.534,9.932 11.542,9.904 11.542,9.874 L11.542,3.204 C11.542,2.338 10.877,1.637 10.051,1.637 L10.051,1.637 Z" id="Shape"></path>
            </g>
        </g>
    </g>
</svg>