<?xml version="1.0" encoding="iso-8859-1"?>
<!-- Generator: Adobe Illustrator 16.0.0, SVG Export Plug-In . SVG Version: 6.00 Build 0)  -->
<!DOCTYPE svg PUBLIC "-//W3C//DTD SVG 1.1//EN" "http://www.w3.org/Graphics/SVG/1.1/DTD/svg11.dtd">
<svg version="1.1" xmlns="http://www.w3.org/2000/svg" xmlns:xlink="http://www.w3.org/1999/xlink" x="0px" y="0px"
	 width="28.357px" height="27.443px" viewBox="0 0 28.357 27.443" style="enable-background:new 0 0 28.357 27.443;"
	 xml:space="preserve">
<g id="c116_arrows">
	<path style="fill:#000000;" d="M21.934,18.911h3.235c0.878-0.003,1.589-0.67,1.589-1.492c0-0.824-0.711-1.492-1.589-1.492h-6.764
		c-0.879,0-1.59,0.668-1.591,1.492c0.001,0.019,0.007,0.041,0.007,0.061c0,0.027-0.007,0.057-0.007,0.086v6.673
		c0,0.864,0.666,1.566,1.49,1.566c0.822-0.002,1.492-0.702,1.492-1.566v-3.252l6.018,6.02c0.582,0.583,1.525,0.583,2.108,0
		c0.58-0.582,0.58-1.526,0-2.108L21.934,18.911z"/>
	<path style="fill:#000000;" d="M11.542,17.419c-0.002-0.824-0.712-1.492-1.592-1.492H3.188c-0.877,0-1.593,0.668-1.593,1.492
		c0,0.822,0.716,1.489,1.593,1.492h3.235l-5.991,5.986c-0.577,0.582-0.577,1.526,0,2.108c0.584,0.583,1.527,0.583,2.108,0
		l6.019-6.02v3.252c0,0.864,0.67,1.564,1.491,1.566c0.826,0,1.491-0.702,1.491-1.566v-6.673c0-0.029-0.008-0.059-0.008-0.086
		C11.534,17.46,11.54,17.438,11.542,17.419z"/>
	<path style="fill:#000000;" d="M16.814,10.022c0.001,0.824,0.712,1.491,1.591,1.491h6.764c0.878,0,1.589-0.667,1.589-1.491
		c0-0.822-0.711-1.487-1.589-1.489h-3.235l5.989-5.987c0.58-0.584,0.58-1.528,0-2.109c-0.583-0.582-1.526-0.582-2.108,0l-6.018,6.02
		V3.205c0-0.867-0.67-1.568-1.492-1.568c-0.824,0-1.49,0.701-1.49,1.568v6.671c0,0.03,0.007,0.057,0.007,0.087
		C16.821,9.983,16.815,9.999,16.814,10.022z"/>
	<path style="fill:#000000;" d="M10.051,1.637c-0.821,0-1.491,0.701-1.491,1.568v3.251l-6.019-6.02
		c-0.581-0.582-1.524-0.582-2.108,0c-0.577,0.581-0.577,1.525,0,2.109l5.991,5.987H3.188C2.312,8.535,1.596,9.2,1.596,10.022
		c0,0.824,0.716,1.491,1.593,1.491H9.95c0.88,0,1.59-0.667,1.592-1.491c-0.002-0.023-0.008-0.039-0.008-0.06
		c0-0.03,0.008-0.057,0.008-0.087V3.205C11.542,2.338,10.877,1.637,10.051,1.637z"/>
</g>
<g id="Capa_1">
</g>
</svg>
