<?xml version="1.0" encoding="UTF-8" standalone="no"?>
<svg width="29px" height="29px" viewBox="0 0 29 29" version="1.1" xmlns="http://www.w3.org/2000/svg" xmlns:xlink="http://www.w3.org/1999/xlink" xmlns:sketch="http://www.bohemiancoding.com/sketch/ns">
    <!-- Generator: Sketch 3.0.4 (8054) - http://www.bohemiancoding.com/sketch -->
    <title>Slice 2</title>
    <desc>Created with Sketch.</desc>
    <defs></defs>
    <g id="Page-1" stroke="none" stroke-width="1" fill="none" fill-rule="evenodd" sketch:type="MSPage">
        <g id="expand" sketch:type="MSLayerGroup">
            <g id="c115_arrows" fill="#000000" sketch:type="MSShapeGroup">
                <path d="M28.36,19.8194286 C28.36,18.9204286 27.695,18.1933571 26.869,18.1933571 C26.05,18.1954286 25.377,18.9204286 25.377,19.8194286 L25.377,23.1855 L19.359,16.9494643 C18.777,16.3456429 17.835,16.3456429 17.253,16.9494643 C16.671,17.55225 16.671,18.531 17.253,19.1337857 L23.242,25.3346071 L20.007,25.3346071 C19.126,25.3366786 18.416,26.0275 18.416,26.8788571 C18.416,27.7322857 19.126,28.4220714 20.007,28.4220714 L26.768,28.4220714 C27.649,28.4220714 28.358,27.7333214 28.361,26.8788571 C28.358,26.8560714 28.355,26.8384643 28.352,26.8156786 C28.355,26.7866786 28.361,26.7556071 28.361,26.7255714 L28.361,19.8194286 L28.36,19.8194286 Z" id="Shape"></path>
                <path d="M9,16.9494643 L2.985,23.1855 L2.985,19.8194286 C2.985,18.9204286 2.313,18.1954286 1.492,18.1933571 C0.668,18.1933571 0.002,18.9204286 0.002,19.8194286 L0,26.7276429 C0,26.7576786 0.008,26.78875 0.01,26.81775 C0.008,26.8395 0.004,26.8571071 0.002,26.8809286 C0.004,27.7353929 0.714,28.4241429 1.594,28.4241429 L8.356,28.4241429 C9.235,28.4241429 9.946,27.7343571 9.946,26.8809286 C9.946,26.0295714 9.235,25.33875 8.356,25.3366786 L5.121,25.3366786 L11.11,19.1358571 C11.69,18.5330714 11.69,17.5543214 11.11,16.9515357 C10.527,16.3456429 9.584,16.3456429 9,16.9494643 L9,16.9494643 Z" id="Shape"></path>
                <path d="M19.359,11.4715714 L25.377,5.23967857 L25.377,8.60575 C25.377,9.50164286 26.05,10.2266429 26.869,10.22975 C27.695,10.22975 28.36,9.50164286 28.36,8.60575 L28.36,1.6965 C28.36,1.66646429 28.354,1.63539286 28.351,1.60846429 C28.354,1.58671429 28.357,1.566 28.36,1.54425 C28.357,0.68875 27.648,0 26.768,0 L20.007,0 C19.126,0 18.416,0.68875 18.416,1.54425 C18.416,2.39457143 19.126,3.08746429 20.007,3.08953571 L23.242,3.08953571 L17.253,9.29035714 C16.671,9.89210714 16.671,10.8687857 17.253,11.4705357 C17.835,12.0774643 18.777,12.0774643 19.359,11.4715714 L19.359,11.4715714 Z" id="Shape"></path>
                <path d="M5.121,3.08953571 L8.355,3.08953571 C9.234,3.08746429 9.945,2.39457143 9.945,1.54425 C9.945,0.68875 9.234,0 8.355,0 L1.594,0 C0.714,0 0.004,0.68875 0.002,1.54425 C0.004,1.566 0.008,1.58671429 0.01,1.60846429 C0.008,1.63539286 0,1.66542857 0,1.6965 L0.002,8.60678571 C0.002,9.50267857 0.668,10.2307857 1.492,10.2307857 C2.313,10.2276786 2.985,9.50267857 2.985,8.60678571 L2.985,5.24071429 L9,11.4715714 C9.584,12.0774643 10.527,12.0774643 11.11,11.4715714 C11.69,10.8698214 11.69,9.89314286 11.11,9.29139286 L5.121,3.08953571 L5.121,3.08953571 Z" id="Shape"></path>
            </g>
            <g id="Capa_1"></g>
        </g>
    </g>
</svg>