<?xml version="1.0" encoding="UTF-8" standalone="no"?>
<svg width="28px" height="28px" viewBox="0 0 28 28" version="1.1" xmlns="http://www.w3.org/2000/svg" xmlns:xlink="http://www.w3.org/1999/xlink" xmlns:sketch="http://www.bohemiancoding.com/sketch/ns">
    <!-- Generator: Sketch 3.0.4 (8054) - http://www.bohemiancoding.com/sketch -->
    <title>Slice 2</title>
    <desc>Created with Sketch.</desc>
    <defs></defs>
    <g id="Page-1" stroke="none" stroke-width="1" fill="none" fill-rule="evenodd" sketch:type="MSPage">
        <g id="loud" sketch:type="MSLayerGroup">
            <g id="c74_volume" fill="#000000" sketch:type="MSShapeGroup">
                <path d="M4.637,8.008 L0,8.008 L0,19.5776 L4.637,19.5776 L13.403,26.85984 C13.403,26.85984 15.014,28.36736 15.014,26.80944 L15.014,0.54992 C15.014,-0.67312 13.596,0.52192 13.596,0.52192 L4.637,8.008 L4.637,8.008 Z" id="Shape"></path>
                <path d="M20.006,5.75008 C19.545,5.23488 18.799,5.23488 18.338,5.75008 C17.877,6.26752 17.877,7.1064 18.338,7.616 C19.856,9.31952 20.608,11.5304 20.611,13.75808 C20.607,15.99024 19.855,18.21456 18.338,19.91248 C17.877,20.42656 17.877,21.2688 18.338,21.78512 C18.568,22.04272 18.869,22.1704 19.174,22.1704 C19.475,22.1704 19.776,22.04384 20.006,21.78512 C21.983,19.56864 22.971,16.65776 22.969,13.75808 C22.971,10.86176 21.98,7.95984 20.006,5.75008 L20.006,5.75008 Z" id="Shape"></path>
                <path d="M23.207,1.58928 C22.74,1.07072 21.996,1.07072 21.531,1.58928 C21.074,2.10784 21.074,2.94224 21.531,3.4608 C24.08,6.31456 25.353,10.03408 25.355,13.77152 C25.353,17.52576 24.085,21.2688 21.531,24.13152 C21.072,24.64784 21.074,25.48336 21.531,26.00192 C21.763,26.2584 22.068,26.3872 22.369,26.3872 C22.672,26.3872 22.976,26.2584 23.207,26.00192 C26.213,22.62176 27.717,18.19216 27.717,13.77152 C27.717,9.36544 26.203,4.95152 23.207,1.58928 L23.207,1.58928 Z" id="Shape"></path>
            </g>
            <g id="Capa_1"></g>
        </g>
    </g>
</svg>