<?xml version="1.0" encoding="iso-8859-1"?>
<!-- Generator: Adobe Illustrator 16.0.0, SVG Export Plug-In . SVG Version: 6.00 Build 0)  -->
<!DOCTYPE svg PUBLIC "-//W3C//DTD SVG 1.1//EN" "http://www.w3.org/Graphics/SVG/1.1/DTD/svg11.dtd">
<svg version="1.1" xmlns="http://www.w3.org/2000/svg" xmlns:xlink="http://www.w3.org/1999/xlink" x="0px" y="0px"
	 width="27.717px" height="24.567px" viewBox="0 0 27.717 24.567" style="enable-background:new 0 0 27.717 24.567;"
	 xml:space="preserve">
<g id="c74_volume">
	<path style="fill:#000000;" d="M4.637,7.15H0V17.48h4.637l8.766,6.502c0,0,1.611,1.346,1.611-0.045c0-1.395,0-22.177,0-23.446
		c0-1.092-1.418-0.025-1.418-0.025L4.637,7.15z"/>
	<path style="fill:#000000;" d="M20.006,5.134c-0.461-0.46-1.207-0.46-1.668,0c-0.461,0.462-0.461,1.211,0,1.666
		c1.518,1.521,2.27,3.495,2.273,5.484c-0.004,1.993-0.756,3.979-2.273,5.495c-0.461,0.459-0.461,1.211,0,1.672
		c0.23,0.23,0.531,0.344,0.836,0.344c0.301,0,0.602-0.113,0.832-0.344c1.977-1.979,2.965-4.578,2.963-7.167
		C22.971,9.698,21.98,7.107,20.006,5.134z"/>
	<path style="fill:#000000;" d="M23.207,1.419c-0.467-0.463-1.211-0.463-1.676,0c-0.457,0.463-0.457,1.208,0,1.671
		c2.549,2.548,3.822,5.869,3.824,9.206c-0.002,3.352-1.27,6.694-3.824,9.25c-0.459,0.461-0.457,1.207,0,1.67
		c0.232,0.229,0.537,0.344,0.838,0.344c0.303,0,0.607-0.115,0.838-0.344c3.006-3.018,4.51-6.973,4.51-10.92
		C27.717,8.362,26.203,4.421,23.207,1.419z"/>
</g>
<g id="Capa_1">
</g>
</svg>
