<?xml version="1.0" encoding="iso-8859-1"?>
<!-- Generator: Adobe Illustrator 16.0.0, SVG Export Plug-In . SVG Version: 6.00 Build 0)  -->
<!DOCTYPE svg PUBLIC "-//W3C//DTD SVG 1.1//EN" "http://www.w3.org/Graphics/SVG/1.1/DTD/svg11.dtd">
<svg version="1.1" id="Capa_1" xmlns="http://www.w3.org/2000/svg" xmlns:xlink="http://www.w3.org/1999/xlink" x="0px" y="0px"
	 width="24.141px" height="28.704px" viewBox="0 0 24.141 28.704" style="enable-background:new 0 0 24.141 28.704;"
	 xml:space="preserve">
<path d="M10.096,14.439c0-3.944,3.199-7.142,7.141-7.142c0.104,0,0.205,0.011,0.305,0.016c0-3.556,0-6.271,0-6.738
	c0-1.274-1.65-0.03-1.65-0.03L5.426,8.356c0,0-0.979,0.1-2.105,0.375v11.338c1.127,0.243,2.105,0.355,2.105,0.355l10.236,7.596
	c0,0,1.879,1.573,1.879-0.051c0-0.49,0-3.042,0-6.402c-0.1,0.004-0.201,0.016-0.305,0.016
	C13.295,21.583,10.096,18.385,10.096,14.439z"/>
<path d="M0,11.02c0,2.116,0,5.821,0,7.302c0,0.568,0.801,1.009,1.785,1.337V9.219C0.801,9.627,0,10.208,0,11.02z"/>
<path d="M21.039,11.895l-1.498-1.499c0,0-2.389,2.545-2.543,2.545c-0.156,0-2.547-2.545-2.547-2.545l-1.496,1.499
	c0,0,2.541,2.335,2.541,2.548c0,0.208-2.541,2.544-2.541,2.544l1.496,1.496c0,0,2.373-2.544,2.547-2.544
	c0.172,0,2.543,2.544,2.543,2.544l1.498-1.496c0,0-2.545-2.373-2.545-2.544C18.494,14.268,21.039,11.895,21.039,11.895z"/>
<path d="M16.998,7.297c-3.943,0-7.145,3.198-7.145,7.142c0,3.946,3.201,7.144,7.145,7.144s7.143-3.197,7.143-7.144
	C24.141,10.495,20.941,7.297,16.998,7.297z M16.998,20.373c-3.275,0-5.934-2.656-5.934-5.934c0-3.276,2.658-5.932,5.934-5.932
	c3.277,0,5.932,2.656,5.932,5.932C22.93,17.717,20.275,20.373,16.998,20.373z"/>
<g>
</g>
<g>
</g>
<g>
</g>
<g>
</g>
<g>
</g>
<g>
</g>
<g>
</g>
<g>
</g>
<g>
</g>
<g>
</g>
<g>
</g>
<g>
</g>
<g>
</g>
<g>
</g>
<g>
</g>
</svg>
