<?xml version="1.0" encoding="UTF-8" standalone="no"?>
<svg width="89px" height="89px" viewBox="0 0 89 89" version="1.1" xmlns="http://www.w3.org/2000/svg" xmlns:xlink="http://www.w3.org/1999/xlink" xmlns:sketch="http://www.bohemiancoding.com/sketch/ns">
    <!-- Generator: Sketch 3.0.4 (8054) - http://www.bohemiancoding.com/sketch -->
    <title>Slice 2</title>
    <desc>Created with Sketch.</desc>
    <defs></defs>
    <g id="Page-1" stroke="none" stroke-width="1" fill="none" fill-rule="evenodd" sketch:type="MSPage">
        <g id="previous" sketch:type="MSLayerGroup" transform="translate(1.000000, 2.000000)" fill="#000000">
            <g id="Page-1" sketch:type="MSShapeGroup">
                <g id="previous">
                    <g id="Layer_8">
                        <path d="M46.1740011,39.3022735 L81.9350011,0.105572544 C82.4690011,-0.297704616 83.0620011,-0.5 83.6580011,-0.5 C84.2540011,-0.5 84.8480011,-0.299018223 85.3820011,0.105572544 C86.4490011,0.914754081 87.1050011,2.40963815 87.1050011,4.025374 L87.1050011,82.4200896 C87.1050011,84.0371391 86.4480011,85.5307094 85.3820011,86.339891 C84.3160011,87.1490725 83.0020011,87.1490725 81.9370011,86.339891 L46.1770011,47.1431901 C45.1110011,46.3353221 44.4520011,44.8391245 44.4520011,43.2233886 C44.4520011,41.6063391 45.1110011,40.111455 46.1740011,39.3022735 L46.1740011,39.3022735 L46.1740011,39.3022735 Z M1.13992734e-06,43.2247022 C1.13992734e-06,44.8417517 0.65700114,46.3366357 1.72300114,47.1431901 L37.4840011,86.3412047 C38.5490011,87.1490725 39.8630011,87.1490725 40.9280011,86.3412047 C41.9950011,85.5320231 42.6520011,84.0371391 42.6520011,82.4214032 L42.6520011,4.02668761 C42.6520011,2.40963815 41.9940011,0.91606768 40.9280011,0.106886151 C40.3930011,-0.29639101 39.8010011,-0.498686394 39.2040011,-0.498686394 C38.6080011,-0.498686394 38.0140011,-0.297704616 37.4810011,0.106886151 L1.72100114,39.3035871 C0.65600114,40.111455 -0.000998860073,41.6076527 1.13992734e-06,43.2247022 L1.13992734e-06,43.2247022 L1.13992734e-06,43.2247022 Z" id="Shape" transform="translate(43.500000, 43.000000) rotate(180.000000) translate(-43.500000, -43.000000) "></path>
                    </g>
                </g>
            </g>
        </g>
    </g>
</svg>