<?xml version="1.0" encoding="UTF-8" standalone="no"?>
<svg width="67px" height="67px" viewBox="0 0 67 67" version="1.1" xmlns="http://www.w3.org/2000/svg" xmlns:xlink="http://www.w3.org/1999/xlink" xmlns:sketch="http://www.bohemiancoding.com/sketch/ns">
    <!-- Generator: Sketch 3.0.4 (8054) - http://www.bohemiancoding.com/sketch -->
    <title>Slice 2</title>
    <desc>Created with Sketch.</desc>
    <defs></defs>
    <g id="Page-1" stroke="none" stroke-width="1" fill="none" fill-rule="evenodd" sketch:type="MSPage">
        <g id="play" sketch:type="MSLayerGroup" fill="#000000">
            <g id="Layer_8" sketch:type="MSShapeGroup">
                <path d="M11.244,0.177 C11.776,-0.131 12.371,-0.285 12.967,-0.285 C13.561,-0.285 14.156,-0.131 14.69,0.177 L55.757,30.016 C56.822,30.631 57.481,31.769 57.481,33 C57.481,34.23 56.824,35.368 55.757,35.982 L14.69,65.823 C13.624,66.437 12.31,66.437 11.245,65.823 C10.179,65.207 9.521,64.068 9.521,62.839 L9.521,3.16 C9.521,1.93 10.178,0.792 11.244,0.177 L11.244,0.177 Z" id="Shape"></path>
                <path d="M2.42602083,0.177 C3.16860417,-0.131 3.999125,-0.285 4.83104167,-0.285 C5.66016667,-0.285 6.4906875,-0.131 7.2360625,0.177 L64.55875,30.016 C66.0453125,30.631 66.9651667,31.769 66.9651667,33 C66.9651667,34.23 66.0481042,35.368 64.55875,35.982 L7.2360625,65.823 C5.74810417,66.437 3.91397917,66.437 2.42741667,65.823 C0.939458333,65.207 0.021,64.068 0.021,62.839 L0.021,3.16 C0.021,1.93 0.9380625,0.792 2.42602083,0.177 L2.42602083,0.177 Z" id="Shape-2" opacity="0"></path>
            </g>
        </g>
    </g>
</svg>