<?xml version="1.0" encoding="UTF-8" standalone="no"?>
<svg width="87px" height="88px" viewBox="0 0 87 88" version="1.1" xmlns="http://www.w3.org/2000/svg" xmlns:xlink="http://www.w3.org/1999/xlink" xmlns:sketch="http://www.bohemiancoding.com/sketch/ns">
    <!-- Generator: Sketch 3.0.4 (8054) - http://www.bohemiancoding.com/sketch -->
    <title>Slice 2</title>
    <desc>Created with Sketch.</desc>
    <defs></defs>
    <g id="Page-1" stroke="none" stroke-width="1" fill="none" fill-rule="evenodd" sketch:type="MSPage">
        <g id="previous" sketch:type="MSLayerGroup" fill="#000000">
            <g id="Page-1" sketch:type="MSShapeGroup">
                <g id="previous">
                    <g id="Layer_8">
                        <path d="M46.1740011,40.3022735 L81.9350011,1.10557254 C82.4690011,0.702295384 83.0620011,0.5 83.6580011,0.5 C84.2540011,0.5 84.8480011,0.700981777 85.3820011,1.10557254 C86.4490011,1.91475408 87.1050011,3.40963815 87.1050011,5.025374 L87.1050011,83.4200896 C87.1050011,85.0371391 86.4480011,86.5307094 85.3820011,87.339891 C84.3160011,88.1490725 83.0020011,88.1490725 81.9370011,87.339891 L46.1770011,48.1431901 C45.1110011,47.3353221 44.4520011,45.8391245 44.4520011,44.2233886 C44.4520011,42.6063391 45.1110011,41.111455 46.1740011,40.3022735 L46.1740011,40.3022735 L46.1740011,40.3022735 Z M1.13992734e-06,44.2247022 C1.13992734e-06,45.8417517 0.65700114,47.3366357 1.72300114,48.1431901 L37.4840011,87.3412047 C38.5490011,88.1490725 39.8630011,88.1490725 40.9280011,87.3412047 C41.9950011,86.5320231 42.6520011,85.0371391 42.6520011,83.4214032 L42.6520011,5.02668761 C42.6520011,3.40963815 41.9940011,1.91606768 40.9280011,1.10688615 C40.3930011,0.70360899 39.8010011,0.501313606 39.2040011,0.501313606 C38.6080011,0.501313606 38.0140011,0.702295384 37.4810011,1.10688615 L1.72100114,40.3035871 C0.65600114,41.111455 -0.000998860073,42.6076527 1.13992734e-06,44.2247022 L1.13992734e-06,44.2247022 L1.13992734e-06,44.2247022 Z" id="Shape" transform="translate(43.500000, 44.000000) scale(-1, 1) rotate(180.000000) translate(-43.500000, -44.000000) "></path>
                    </g>
                </g>
            </g>
        </g>
    </g>
</svg>