<?xml version="1.0" encoding="utf-8"?>
<!-- Generator: Adobe Illustrator 16.0.0, SVG Export Plug-In . SVG Version: 6.00 Build 0)  -->
<!DOCTYPE svg PUBLIC "-//W3C//DTD SVG 1.1//EN" "http://www.w3.org/Graphics/SVG/1.1/DTD/svg11.dtd">
<svg version="1.1" id="Capa_1" xmlns="http://www.w3.org/2000/svg" xmlns:xlink="http://www.w3.org/1999/xlink" x="0px" y="0px"
	 width="100px" height="100px" viewBox="0 0 100 100" enable-background="new 0 0 100 100" xml:space="preserve">
<g id="Layer_8">
	<path d="M52.622,47.015l35.761-29.839c0.534-0.307,1.127-0.461,1.723-0.461s1.19,0.153,1.724,0.461
		c1.067,0.616,1.723,1.754,1.723,2.984v59.679c0,1.231-0.657,2.368-1.723,2.984s-2.38,0.616-3.445,0l-35.76-29.839
		C51.559,52.369,50.9,51.23,50.9,50C50.9,48.769,51.559,47.631,52.622,47.015z M6.448,50.001c0,1.231,0.657,2.369,1.723,2.983
		l35.761,29.84c1.065,0.615,2.379,0.615,3.444,0c1.067-0.616,1.724-1.754,1.724-2.984V20.161c0-1.231-0.658-2.368-1.724-2.984
		c-0.535-0.307-1.127-0.461-1.724-0.461c-0.596,0-1.19,0.153-1.723,0.461L8.169,47.016C7.104,47.631,6.447,48.77,6.448,50.001z"/>
</g>
</svg>
